Coordinates
version=1
nRows=13
nColumns=40
inDegrees=yes

Units are S.I. units (second, meters, Newtons, ...)
If the header above contains a line with 'inDegrees', this indicates whether rotational values are in degrees (yes) or radians (no).

endheader
time	pelvis_tilt	pelvis_list	pelvis_rotation	pelvis_tx	pelvis_ty	pelvis_tz	hip_flexion_r	hip_adduction_r	hip_rotation_r	knee_angle_r	knee_angle_r_beta	ankle_angle_r	subtalar_angle_r	mtp_angle_r	hip_flexion_l	hip_adduction_l	hip_rotation_l	knee_angle_l	knee_angle_l_beta	ankle_angle_l	subtalar_angle_l	mtp_angle_l	lumbar_extension	lumbar_bending	lumbar_rotation	arm_flex_r	arm_add_r	arm_rot_r	elbow_flex_r	pro_sup_r	wrist_flex_r	wrist_dev_r	arm_flex_l	arm_add_l	arm_rot_l	elbow_flex_l	pro_sup_l	wrist_flex_l	wrist_dev_l
      1.84500000	      1.13347379	      0.00373510	     -8.05985152	      1.81488024	      0.90452058	      0.25429712	    -20.97807165	     -5.70425827	    -14.22827256	     18.47348390	      0.32242312	     -3.91582260	      8.75731495	      0.00000000	     24.46141350	     -6.70737030	    -24.58779032	     16.22739465	      0.28322147	     -6.42061781	      3.72936874	      0.00000000	     -2.18785181	     -1.75266322	      1.69291244	     44.32165600	    -15.36662022	     44.32165600	     75.07016785	     44.99976346	      0.00000000	      0.00000000	     44.32165600	    -15.36662022	     44.32165600	     75.07016785	     44.99976346	      0.00000000	      0.00000000
      1.85000000	      1.41683191	      0.32730657	     -8.05994280	      1.82285070	      0.90524640	      0.25370256	    -21.06636694	     -6.24655229	    -14.07964738	     19.37996737	      0.33824424	     -5.62451258	      7.62984078	      0.00000000	     24.12759100	     -6.42508009	    -24.53815290	     17.12761972	      0.29893336	     -6.61151999	      3.06406413	      0.00000000	     -2.37482586	     -2.13954551	      1.96543507	     44.32257594	    -15.36579865	     44.32257594	     75.06986078	     44.99976633	      0.00000000	      0.00000000	     44.32257594	    -15.36579865	     44.32257594	     75.06986078	     44.99976633	      0.00000000	      0.00000000
      1.85500000	      1.63355482	      0.65786956	     -8.02666813	      1.83082509	      0.90582141	      0.25303088	    -20.99938954	     -6.77024258	    -13.92563945	     20.45620521	      0.35702813	     -7.31164427	      6.12527314	      0.00000000	     23.86406859	     -6.11333197	    -24.40637721	     18.00226308	      0.31419876	     -6.80994172	      2.43320749	      0.00000000	     -2.43982974	     -2.54064959	      2.26585862	     44.32394144	    -15.36458048	     44.32394144	     75.06940668	     44.99977054	      0.00000000	      0.00000000	     44.32394144	    -15.36458048	     44.32394144	     75.06940668	     44.99977054	      0.00000000	      0.00000000
      1.86000000	      1.88197069	      0.95587619	     -7.96369561	      1.83877410	      0.90656681	      0.25226218	    -20.89614623	     -7.28973991	    -13.88626873	     21.62414664	      0.37741256	     -9.11760912	      4.90404173	      0.00000000	     23.54038476	     -5.79641566	    -24.27576262	     18.82425511	      0.32854523	     -6.83504287	      1.80364618	      0.00000000	     -2.57820274	     -2.92491041	      2.50227634	     44.32496785	    -15.36366589	     44.32496785	     75.06906672	     44.99977366	      0.00000000	      0.00000000	     44.32496785	    -15.36366589	     44.32496785	     75.06906672	     44.99977366	      0.00000000	      0.00000000
      1.86500000	      2.07525367	      1.29026084	     -7.90498245	      1.84670109	      0.90716872	      0.25149224	    -20.62388697	     -7.86895280	    -13.90668086	     22.99621196	      0.40135961	    -10.88022188	      3.42913433	      0.00000000	     23.26368504	     -5.41933423	    -24.03339450	     19.61803287	      0.34239927	     -6.85654802	      1.17465719	      0.00000000	     -2.61736782	     -3.29907139	      2.71562148	     44.32621350	    -15.36255718	     44.32621350	     75.06865573	     44.99977740	      0.00000000	      0.00000000	     44.32621350	    -15.36255718	     44.32621350	     75.06865573	     44.99977740	      0.00000000	      0.00000000
      1.87000000	      2.24745502	      1.62316046	     -7.80806963	      1.85459455	      0.90776643	      0.25059668	    -20.24829855	     -8.45789209	    -13.98857612	     24.50158975	      0.42763341	    -12.64873156	      2.00953172	      0.00000000	     22.98860071	     -4.99823298	    -23.77001685	     20.34171191	      0.35502985	     -6.78646592	      0.53400022	      0.00000000	     -2.64336068	     -3.67616512	      2.89798455	     44.32747749	    -15.36143350	     44.32747749	     75.06824039	     44.99978113	      0.00000000	      0.00000000	     44.32747749	    -15.36143350	     44.32747749	     75.06824039	     44.99978113	      0.00000000	      0.00000000
      1.87500000	      2.38541531	      1.99276744	     -7.71999204	      1.86243947	      0.90825760	      0.24970625	    -19.70379123	     -9.13886552	    -14.16710589	     26.26537888	      0.45841734	    -14.24956119	      0.58702648	      0.00000000	     22.71454564	     -4.50222100	    -23.46107299	     20.97388787	      0.36606340	     -6.67886711	     -0.21290930	      0.00000000	     -2.61899983	     -4.09677760	      3.05051231	     44.32976088	    -15.35940718	     44.32976088	     75.06749466	     44.99978773	      0.00000000	      0.00000000	     44.32976088	    -15.35940718	     44.32976088	     75.06749466	     44.99978773	      0.00000000	      0.00000000
      1.88000000	      2.52966035	      2.33169398	     -7.62515994	      1.87025112	      0.90883375	      0.24877495	    -19.14264890	     -9.79652120	    -14.34719520	     27.99920333	      0.48867829	    -16.09620513	     -0.79077491	      0.00000000	     22.40669316	     -4.01854706	    -23.16146555	     21.57602228	      0.37657263	     -6.44712731	     -0.84453544	      0.00000000	     -2.60822559	     -4.48346413	      3.17994439	     44.33103770	    -15.35827603	     44.33103770	     75.06708008	     44.99979134	      0.00000000	      0.00000000	     44.33103770	    -15.35827603	     44.33103770	     75.06708008	     44.99979134	      0.00000000	      0.00000000
      1.88500000	      2.61678263	      2.71202748	     -7.53162879	      1.87800132	      0.90923356	      0.24781394	    -18.41006297	    -10.52015619	    -14.52685728	     29.93005004	      0.52237792	    -17.79606205	     -2.32078437	      0.00000000	     22.13787680	     -3.46695749	    -22.86028554	     22.10412447	      0.38578975	     -6.19799262	     -1.52225314	      0.00000000	     -2.51111082	     -4.90647289	      3.30120951	     44.33234281	    -15.35712124	     44.33234281	     75.06665810	     44.99979498	      0.00000000	      0.00000000	     44.33234281	    -15.35712124	     44.33234281	     75.06665810	     44.99979498	      0.00000000	      0.00000000
      1.89000000	      2.70519436	      3.06559622	     -7.47188009	      1.88567090	      0.90968141	      0.24690551	    -17.60720169	    -11.25183085	    -14.67665779	     31.95381693	      0.55769931	    -19.41789776	     -3.73249344	      0.00000000	     21.81214497	     -2.93042640	    -22.61809891	     22.52794138	      0.39318675	     -5.86184397	     -2.20583836	      0.00000000	     -2.44962954	     -5.29913235	      3.38466022	     44.33358269	    -15.35602551	     44.33358269	     75.06625890	     44.99979839	      0.00000000	      0.00000000	     44.33358269	    -15.35602551	     44.33358269	     75.06625890	     44.99979839	      0.00000000	      0.00000000
      1.89500000	      2.82157220	      3.34106955	     -7.44421331	      1.89328939	      0.91026923	      0.24604917	    -16.80983848	    -11.89672849	    -14.68089990	     33.95258140	      0.59258433	    -20.93008899	     -4.96771110	      0.00000000	     21.39401586	     -2.46542597	    -22.41813469	     22.85724102	      0.39893411	     -5.46340608	     -2.80478968	      0.00000000	     -2.45826637	     -5.60831528	      3.42581971	     44.33451475	    -15.35520270	     44.33451475	     75.06595991	     44.99980091	      0.00000000	      0.00000000	     44.33451475	    -15.35520270	     44.33451475	     75.06595991	     44.99980091	      0.00000000	      0.00000000
      1.90000000	      2.77021807	      3.93293272	     -7.40307301	      1.90086641	      0.91022542	      0.24514093	    -15.67163233	    -12.94633869	    -14.94530610	     36.26180733	      0.63288793	    -22.41438518	     -6.84439685	      0.00000000	     21.22821197	     -1.66894330	    -22.20528354	     23.24187375	      0.40564722	     -5.19707787	     -3.49350581	      0.00000000	     -2.10832878	     -6.26657593	      3.63614372	     44.33596976	    -15.35391974	     44.33596976	     75.06549504	     44.99980480	      0.00000000	      0.00000000	     44.33596976	    -15.35391974	     44.33596976	     75.06549504	     44.99980480	      0.00000000	      0.00000000
      1.90500000	      2.76656203	      4.59650720	     -7.42572039	      1.90837852	      0.91029811	      0.24432518	    -14.51055839	    -14.15337400	    -15.13204382	     38.67237356	      0.67496025	    -23.43262532	     -7.92962078	      0.00000000	     20.90933597	     -0.76665202	    -22.14259815	     23.36352773	      0.40777048	     -4.97883013	     -4.27342111	      0.00000000	     -1.85770244	     -7.00608885	      3.83887977	     44.33983994	    -15.35051572	     44.33983994	     75.06426909	     44.99981483	      0.00000000	      0.00000000	     44.33983994	    -15.35051572	     44.33983994	     75.06426909	     44.99981483	      0.00000000	      0.00000000
